HIERARCHY
ROOT Hips
{
	OFFSET -8.665500 -1.496397 44.816700
	CHANNELS 6 Xposition Yposition Zposition Zrotation Xrotation Yrotation
	JOINT Chest
	{
		OFFSET -0.698600 0.806100 5.350899
		CHANNELS 6 Xposition Yposition Zposition Zrotation Xrotation Yrotation
		JOINT Chest2
		{
			OFFSET 0.000000 0.000000 4.409100
			CHANNELS 6 Xposition Yposition Zposition Zrotation Xrotation Yrotation
			JOINT Neck
			{
				OFFSET 0.000000 0.000001 10.248299
				CHANNELS 6 Xposition Yposition Zposition Zrotation Xrotation Yrotation
				JOINT Head
				{
					OFFSET 0.000000 0.000000 2.173897
					CHANNELS 6 Xposition Yposition Zposition Zrotation Xrotation Yrotation
					End Site
					{
						OFFSET 0.000000 0.000001 9.966400
					}
				}
			}
			JOINT LeftCollar
			{
				OFFSET 2.100600 -0.520900 6.016098
				CHANNELS 6 Xposition Yposition Zposition Zrotation Xrotation Yrotation
				JOINT LeftShoulder
				{
					OFFSET 5.536700 0.000000 0.000000
					CHANNELS 6 Xposition Yposition Zposition Zrotation Xrotation Yrotation
					JOINT LeftElbow
					{
						OFFSET 0.000000 -0.000001 -12.362099
						CHANNELS 6 Xposition Yposition Zposition Zrotation Xrotation Yrotation
						JOINT LeftWrist
						{
							OFFSET 0.000000 -0.000001 -10.273201
							CHANNELS 6 Xposition Yposition Zposition Zrotation Xrotation Yrotation
							End Site
							{
								OFFSET 0.000000 -0.000000 -2.173901
							}
						}
					}
				}
			}
			JOINT RightCollar
			{
				OFFSET -2.899500 -1.655900 6.981701
				CHANNELS 6 Xposition Yposition Zposition Zrotation Xrotation Yrotation
				JOINT RightShoulder
				{
					OFFSET -4.387501 0.000000 0.000000
					CHANNELS 6 Xposition Yposition Zposition Zrotation Xrotation Yrotation
					JOINT RightElbow
					{
						OFFSET 0.000000 -0.000001 -10.858101
						CHANNELS 6 Xposition Yposition Zposition Zrotation Xrotation Yrotation
						JOINT RightWrist
						{
							OFFSET 0.000000 -0.000001 -12.079601
							CHANNELS 6 Xposition Yposition Zposition Zrotation Xrotation Yrotation
							End Site
							{
								OFFSET 0.000000 0.000000 -2.173901
							}
						}
					}
				}
			}
		}
	}
	JOINT LeftHip
	{
		OFFSET 2.190800 0.073900 -2.522499
		CHANNELS 6 Xposition Yposition Zposition Zrotation Xrotation Yrotation
		JOINT LeftKnee
		{
			OFFSET 0.000000 -0.000002 -20.305000
			CHANNELS 6 Xposition Yposition Zposition Zrotation Xrotation Yrotation
			JOINT LeftAnkle
			{
				OFFSET 0.000000 -0.000001 -16.771700
				CHANNELS 6 Xposition Yposition Zposition Zrotation Xrotation Yrotation
				End Site
				{
					OFFSET 0.000000 -8.738000 0.000001
				}
			}
		}
	}
	JOINT RightHip
	{
		OFFSET -2.029500 0.054300 -2.705200
		CHANNELS 6 Xposition Yposition Zposition Zrotation Xrotation Yrotation
		JOINT RightKnee
		{
			OFFSET 0.000000 -0.000002 -20.030399
			CHANNELS 6 Xposition Yposition Zposition Zrotation Xrotation Yrotation
			JOINT RightAnkle
			{
				OFFSET 0.000000 -0.000001 -17.032700
				CHANNELS 6 Xposition Yposition Zposition Zrotation Xrotation Yrotation
				End Site
				{
					OFFSET 0.000000 -8.823600 0.000001
				}
			}
		}
	}
}
MOTION
Frames: 6
Frame Time: 0.041667
13.334695 -18.742800 14.737299 2717.615556 12.898414 -16.755893 -0.698598 0.806098 5.350900 -14.733640 -13.736634 13.334541 0.000001 0.000001 4.409104 14.919244 -4.897162 0.632417 0.000001 0.000001 10.248291 65.016851 -6.588248 -8.003219 0.000001 -0.000001 2.173891 3.889731 -0.329414 6.261088 2.100600 -0.520902 6.016099 7.576518 -2.252052 14.446714 5.536697 -0.000003 0.000001 345.337534 32.373222 264.303951 -0.000004 -0.000005 -12.362092 238.457832 -180.846334 169.366083 -0.000008 -0.000002 -10.273203 2807.575596 188.744792 -155.670653 -2.899503 -1.655901 6.981700 -6.352331 -4.173788 -1.589109 -4.387497 -0.000001 -0.000001 -191.523408 -525.397057 618.624331 -0.000002 -0.000003 -10.858095 143.673671 -180.508513 188.088889 -0.000003 0.000005 -12.079599 271.222003 -9.874424 -49.707340 2.190799 0.073898 -2.522498 -377.930869 -180.685592 -58.503275 -0.000004 -0.000006 -20.305014 -889.413027 2.253893 135.102084 0.000000 0.000005 -16.771706 1521.556870 26.725181 61.403831 -2.029500 0.054298 -2.705200 -511.555597 -6.172505 -99.833480 0.000002 -0.000005 -20.030401 375.393508 187.255059 28.640445 -0.000002 -0.000002 -17.032698 7.956727 58.507093 -155.313038
13.332400 -18.735502 14.742195 2717.694022 12.995039 -16.762561 -0.698599 0.806098 5.350895 -14.795803 -13.844379 13.356232 0.000002 0.000001 4.409100 14.794605 -4.862310 0.608501 0.000002 0.000001 10.248298 65.232883 -6.817614 -7.978973 0.000004 -0.000001 2.173900 3.952808 -0.373719 6.190648 2.100604 -0.520899 6.016103 7.797710 -2.406914 14.303027 5.536695 -0.000002 -0.000004 345.280187 33.057815 264.348265 0.000000 -0.000004 -12.362093 238.725411 -180.781228 169.356617 -0.000003 -0.000002 -10.273202 2807.761814 188.782358 -155.778242 -2.899500 -1.655900 6.981702 -5.982778 -3.931414 -1.088690 -4.387496 0.000001 -0.000002 -191.892471 -525.047570 618.227032 -0.000000 -0.000001 -10.858104 143.817693 -180.536448 188.061472 -0.000003 -0.000002 -12.079600 271.274596 -9.831265 -49.737813 2.190797 0.073899 -2.522495 -377.974390 -180.728977 -58.448073 -0.000005 -0.000006 -20.305014 -889.396307 2.276929 135.110991 -0.000000 0.000006 -16.771706 1521.529877 26.730791 61.422170 -2.029503 0.054300 -2.705197 -511.603025 -6.172088 -99.858069 -0.000001 -0.000005 -20.030397 375.345888 187.224091 28.648590 -0.000002 -0.000004 -17.032700 7.992404 58.497988 -155.274993
13.329799 -18.728600 14.746294 2717.764837 13.101948 -16.746741 -0.698599 0.806099 5.350901 -14.852999 -13.950676 13.344575 0.000001 -0.000001 4.409101 14.657596 -4.829530 0.582271 0.000002 0.000004 10.248300 65.414955 -7.015305 -7.923500 0.000003 0.000002 2.173901 4.033878 -0.429369 6.101298 2.100603 -0.520900 6.016109 8.028801 -2.569889 14.198151 5.536693 -0.000007 0.000005 345.288138 33.962976 264.333621 -0.000002 -0.000002 -12.362090 239.171204 -180.695564 169.379115 -0.000001 -0.000001 -10.273204 2808.012509 188.887529 -156.018651 -2.899499 -1.655898 6.981704 -5.657014 -3.667514 -0.625559 -4.387497 -0.000001 -0.000004 -192.156376 -524.733490 617.810391 -0.000000 -0.000003 -10.858100 144.102880 -180.593029 188.154896 0.000003 0.000003 -12.079603 271.194628 -9.920013 -49.848404 2.190802 0.073899 -2.522498 -377.867375 -180.236589 -58.439303 -0.000004 -0.000006 -20.305008 -888.992724 2.518096 135.063221 -0.000000 0.000007 -16.771706 1521.183559 26.516756 62.335339 -2.029500 0.054301 -2.705199 -511.588327 -6.869344 -99.811897 0.000001 -0.000007 -20.030397 374.848568 186.953643 28.685633 -0.000002 -0.000003 -17.032698 8.474289 58.454753 -155.075989
13.325795 -18.721802 14.748995 2717.826691 13.200193 -16.729278 -0.698599 0.806103 5.350900 -14.907294 -14.029760 13.326411 -0.000000 0.000000 4.409100 14.513937 -4.815062 0.557408 -0.000000 0.000002 10.248298 65.599958 -7.194908 -7.850339 0.000002 0.000000 2.173894 4.086662 -0.483513 6.044521 2.100599 -0.520900 6.016099 8.364427 -2.888790 14.029023 5.536694 -0.000005 0.000003 345.312016 35.191826 264.442248 0.000001 -0.000001 -12.362090 240.038857 -180.432684 169.493057 -0.000003 -0.000001 -10.273200 2808.053600 188.983644 -156.154790 -2.899503 -1.655900 6.981692 -5.346669 -3.569264 0.019431 -4.387499 -0.000001 -0.000001 -192.490440 -524.572298 617.323535 -0.000001 -0.000000 -10.858104 144.314958 -180.646141 188.151877 0.000002 0.000003 -12.079599 271.264733 -10.074183 -50.121366 2.190804 0.073900 -2.522496 -377.920705 -180.326980 -58.357826 -0.000006 -0.000004 -20.305016 -889.015674 2.510499 135.084777 0.000001 0.000009 -16.771704 1521.195253 26.529539 62.355597 -2.029503 0.054300 -2.705200 -511.631658 -6.781171 -99.834054 0.000002 -0.000005 -20.030396 374.855726 186.947018 28.689247 -0.000002 -0.000004 -17.032694 8.414286 58.458059 -155.118118
13.321197 -18.715300 14.751894 2717.848548 13.279057 -16.700591 -0.698603 0.806100 5.350902 -14.932392 -14.072133 13.328644 0.000001 -0.000001 4.409104 14.675626 -4.839661 0.634799 0.000004 0.000002 10.248308 65.436450 -7.421176 -7.831508 0.000003 -0.000001 2.173894 4.066961 -0.630952 5.998302 2.100603 -0.520899 6.016106 8.129826 -2.962565 14.131442 5.536695 0.000001 -0.000001 345.734477 35.705343 263.968670 -0.000000 -0.000002 -12.362092 240.115136 -180.355243 169.560006 -0.000002 0.000001 -10.273203 2808.296645 188.969519 -156.379121 -2.899498 -1.655898 6.981705 -5.354224 -3.295632 0.043157 -4.387498 -0.000001 0.000001 -192.636101 -524.799934 617.428173 -0.000005 0.000000 -10.858103 144.275220 -180.625650 188.017554 0.000001 0.000003 -12.079600 270.850004 -10.085886 -50.244333 2.190799 0.073898 -2.522498 -377.950539 -180.386280 -58.284456 -0.000004 -0.000004 -20.305016 -889.031957 2.497119 135.103888 0.000000 0.000008 -16.771704 1521.227491 26.545867 62.367980 -2.029501 0.054298 -2.705198 -511.644662 -6.709282 -99.842852 0.000001 -0.000004 -20.030397 374.851054 186.954463 28.693591 -0.000002 -0.000005 -17.032700 8.370603 58.462697 -155.149099
13.316598 -18.707901 14.753996 2717.869312 13.349969 -16.689501 -0.698599 0.806103 5.350897 -14.970680 -14.065518 13.391709 0.000001 0.000002 4.409102 14.683826 -4.877928 0.631532 -0.000000 0.000001 10.248299 65.449666 -7.667441 -7.715180 0.000004 0.000002 2.173886 4.036064 -0.683451 5.901020 2.100601 -0.520902 6.016103 8.062744 -2.860292 14.310968 5.536695 -0.000002 -0.000006 346.333621 36.659292 263.294285 -0.000005 0.000001 -12.362094 240.345013 -180.288239 169.657651 -0.000003 0.000000 -10.273203 2809.053102 189.008150 -156.552211 -2.899498 -1.655901 6.981699 -5.484803 -3.253655 -0.226496 -4.387507 0.000003 -0.000005 -192.323142 -525.016807 617.848312 0.000000 0.000001 -10.858103 144.062760 -180.636346 188.107057 0.000005 0.000002 -12.079603 270.806236 -10.040764 -50.470132 2.190797 0.073902 -2.522502 -378.006410 -180.420717 -58.195985 -0.000004 -0.000003 -20.305014 -889.112608 2.542365 135.148065 0.000000 0.000006 -16.771706 1521.196455 26.574755 62.380528 -2.029504 0.054304 -2.705200 -511.665207 -6.632576 -99.866723 0.000002 -0.000003 -20.030396 374.835509 186.987657 28.697002 -0.000003 0.000000 -17.032694 8.287317 58.457028 -155.177486
